<?xml version="1.0" encoding="UTF-8" standalone="no"?>
<!DOCTYPE svg PUBLIC "-//W3C//DTD SVG 1.1//EN" "http://www.w3.org/Graphics/SVG/1.1/DTD/svg11.dtd">
<svg width="100%" height="100%" viewBox="0 0 64 64" version="1.1" xmlns="http://www.w3.org/2000/svg" xmlns:xlink="http://www.w3.org/1999/xlink" xml:space="preserve" xmlns:serif="http://www.serif.com/" style="fill-rule:evenodd;clip-rule:evenodd;stroke-linejoin:round;stroke-miterlimit:2;">
    <g transform="matrix(0.390229,0,0,0.38781,-115.75,-42.1418)">
        <path d="M447.69,237.215C438.77,236.965 431.85,237.885 426.05,240.34C424.38,241.015 421.7,241.015 421.48,243.13C422.372,244.017 422.48,245.47 423.262,246.7C424.6,248.932 426.945,251.94 429.062,253.5L436.2,258.633C440.55,261.307 445.457,262.87 449.695,265.548C452.15,267.11 454.602,269.117 457.057,270.792C458.307,271.685 459.065,273.138 460.627,273.693L460.627,273.355C459.847,272.355 459.622,270.905 458.845,269.785L455.495,266.552C452.262,262.203 448.245,258.407 443.895,255.287C440.325,252.832 432.52,249.487 431.07,245.362L430.85,245.112C433.3,244.862 436.2,243.995 438.545,243.325C442.34,242.325 445.795,242.545 449.695,241.542L455.052,239.98L455.052,238.98C453.045,236.972 451.595,234.295 449.477,232.4C443.79,227.492 437.54,222.695 431.07,218.68C427.612,216.45 423.15,214.997 419.47,213.105C418.128,212.435 415.9,212.1 415.12,210.985C413.107,208.535 411.995,205.297 410.545,202.395L401.4,182.987C399.393,178.637 398.163,174.287 395.712,170.272C384.222,151.31 371.728,139.822 352.543,128.555C348.417,126.212 343.51,125.205 338.293,123.98L329.928,123.53C328.14,122.75 326.358,120.63 324.795,119.625C318.438,115.61 302.04,106.91 297.353,118.375C294.34,125.625 301.815,132.762 304.353,136.445C306.253,139.01 308.703,141.91 310.045,144.81C310.795,146.705 311.045,148.715 311.828,150.722C313.61,155.63 315.285,161.097 317.627,165.672C318.877,168.015 320.19,170.472 321.753,172.59C322.645,173.84 324.208,174.375 324.54,176.382C322.978,178.615 322.87,181.957 321.977,184.75C317.96,197.355 319.523,212.97 325.21,222.25C326.998,225.037 331.21,231.175 336.925,228.83C341.945,226.822 340.825,220.465 342.275,214.887C342.612,213.55 342.387,212.657 343.055,211.762L343.055,212.012L347.63,221.27C351.088,226.735 357.113,232.425 362.13,236.22C364.805,238.227 366.925,241.687 370.27,242.912L370.27,242.575L370.05,242.575C369.38,241.575 368.375,241.125 367.483,240.345C365.475,238.337 363.245,235.882 361.683,233.652C357,227.407 352.875,220.49 349.193,213.352C347.405,209.895 345.843,206.102 344.398,202.645C343.723,201.305 343.723,199.295 342.61,198.63C340.935,201.08 338.485,203.205 337.253,206.215C335.133,211.01 334.913,216.922 334.133,223.057C333.683,223.17 333.883,223.057 333.683,223.307C330.118,222.417 328.888,218.732 327.55,215.612C324.205,207.692 323.645,194.977 326.545,185.83C327.325,183.487 330.675,176.125 329.338,173.895C328.663,171.775 326.438,170.55 325.208,168.875C323.758,166.755 322.2,164.08 321.195,161.737C318.52,155.487 317.183,148.575 314.28,142.327C312.938,139.427 310.598,136.415 308.7,133.74C306.58,130.727 304.243,128.607 302.568,125.04C302.01,123.79 301.23,121.805 302.123,120.465C302.343,119.572 302.793,119.215 303.68,119.015C305.13,117.765 309.26,119.35 310.71,120.015C314.835,121.69 318.293,123.25 321.75,125.59C323.313,126.705 324.988,128.825 326.995,129.385L329.34,129.385C332.91,130.165 336.923,129.635 340.265,130.635C346.178,132.535 351.53,135.32 356.33,138.335C370.94,147.592 382.99,160.755 391.13,176.485C392.468,179.05 393.025,181.392 394.255,184.07C396.6,189.537 399.5,195.112 401.838,200.47C404.183,205.712 406.413,211.07 409.758,215.42C411.433,217.762 418.123,218.987 421.133,220.215C423.365,221.215 426.82,222.115 428.833,223.34C432.623,225.682 436.415,228.36 439.983,230.925C441.765,232.26 447.345,235.05 447.678,237.275L447.69,237.215ZM333.94,140.285C332.399,140.271 330.863,140.459 329.37,140.843L329.37,141.093L329.59,141.093C330.482,142.878 332.045,144.105 333.16,145.668L335.727,151.023L335.947,150.772C337.51,149.658 338.292,147.873 338.292,145.198C337.622,144.418 337.512,143.635 336.955,142.855C336.285,141.74 334.835,141.18 333.94,140.29L333.94,140.285Z" style="fill:white;"/>
    </g>
</svg>
